<svg width="148" height="63" viewBox="0 0 148 63" fill="none" xmlns="http://www.w3.org/2000/svg">
<path d="M51.946 0H46.256V6.9815L35.0054 12.2856V26.5018L44.8359 31.1363L47.2622 25.9896L40.6954 22.8937V15.8937L49.101 11.9309L59.1436 16.6654L63.1202 18.5209V12.242L61.5649 11.5163L61.5547 11.5115L51.946 6.9815V0Z" fill="url(#paint0_linear_3571_37758)"/>
<path d="M4.01611 28.45V4.98652H8.31775V14.5349H26.0271V4.98652H30.3287V28.45H26.0271V18.9017H8.31775V28.45H4.01611Z" fill="url(#paint1_linear_3571_37758)"/>
<path d="M67.608 5.08176V28.5453H71.9097V11.3713L86.3462 28.5453H91.0715V5.08176H86.7373V22.2231L72.3333 5.08176H67.608Z" fill="url(#paint2_linear_3571_37758)"/>
<path d="M94.7876 5.08176V28.5453H116.394V24.211H99.1218V18.9969H113.004V14.6301H99.1218V9.41599H116.394V5.08176H94.7876Z" fill="url(#paint3_linear_3571_37758)"/>
<path d="M128.797 19.7464V28.5453H133.132V19.779L143.984 5.08176H138.802L130.981 15.0212L123.062 5.08176H117.978L128.797 19.7464Z" fill="url(#paint4_linear_3571_37758)"/>
<path d="M53.3876 31.1364L50.9546 36.2799L57.5233 39.3871V46.4278L49.1176 50.4039L39.0651 45.6488L35.1171 43.8497V50.1027L36.6687 50.8098L46.2726 55.3526V62.2656H51.9626V55.3526L63.2133 50.0308V35.7841L53.3876 31.1364Z" fill="white"/>
<path d="M4 58.4811V35.0177H8.72529L17.2308 45.1526L25.7037 35.0177H30.4616V58.4811H26.1274V41.2746L17.2308 51.8657L8.30164 41.3072V58.4811H4Z" fill="white"/>
<path d="M67.6245 35.0177V58.4811H71.9262V41.3072L86.3627 58.4811H91.088V35.0177H86.7538V52.159L72.3498 35.0177H67.6245Z" fill="white"/>
<path d="M94.8041 35.0177V58.4811H116.41V54.1469H99.1383V48.9328H113.021V44.566H99.1383V39.3519H116.41V35.0177H94.8041Z" fill="white"/>
<path d="M128.814 49.6823V58.4811H133.148V49.7149L144 35.0177H138.818L130.997 44.9571L123.078 35.0177H117.995L128.814 49.6823Z" fill="white"/>
<defs>
<linearGradient id="paint0_linear_3571_37758" x1="73.9998" y1="0" x2="73.9998" y2="31.1363" gradientUnits="userSpaceOnUse">
<stop stop-color="#E5913B"/>
<stop offset="1" stop-color="#E56E3B"/>
</linearGradient>
<linearGradient id="paint1_linear_3571_37758" x1="73.9998" y1="0" x2="73.9998" y2="31.1363" gradientUnits="userSpaceOnUse">
<stop stop-color="#E5913B"/>
<stop offset="1" stop-color="#E56E3B"/>
</linearGradient>
<linearGradient id="paint2_linear_3571_37758" x1="73.9998" y1="0" x2="73.9998" y2="31.1363" gradientUnits="userSpaceOnUse">
<stop stop-color="#E5913B"/>
<stop offset="1" stop-color="#E56E3B"/>
</linearGradient>
<linearGradient id="paint3_linear_3571_37758" x1="73.9998" y1="0" x2="73.9998" y2="31.1363" gradientUnits="userSpaceOnUse">
<stop stop-color="#E5913B"/>
<stop offset="1" stop-color="#E56E3B"/>
</linearGradient>
<linearGradient id="paint4_linear_3571_37758" x1="73.9998" y1="0" x2="73.9998" y2="31.1363" gradientUnits="userSpaceOnUse">
<stop stop-color="#E5913B"/>
<stop offset="1" stop-color="#E56E3B"/>
</linearGradient>
</defs>
</svg>
